PathFileType	4	(X/Y/Z)	40_1_30_p1_0-360.trc
DataRate	CameraRate	NumFrames	NumMarkers	Units	OrigDataRate	OrigDataStartFrame	OrigNumFrames
60.0	60.0	7	27	m	60.0	180	361
Frame#	Time	RHip			RKnee			RAnkle			RBigToe			RSmallToe			RHeel			LHip			LKnee			LAnkle			LBigToe			LSmallToe			LHeel			Neck			Head			Nose			RShoulder			RElbow			RWrist			RThumb			RIndex			RPinky			LShoulder			LElbow			LWrist			LThumb			LIndex			LPinky			
		X1	Y1	Z1	X2	Y2	Z2	X3	Y3	Z3	X4	Y4	Z4	X5	Y5	Z5	X6	Y6	Z6	X7	Y7	Z7	X8	Y8	Z8	X9	Y9	Z9	X10	Y10	Z10	X11	Y11	Z11	X12	Y12	Z12	X13	Y13	Z13	X14	Y14	Z14	X15	Y15	Z15	X16	Y16	Z16	X17	Y17	Z17	X18	Y18	Z18	X19	Y19	Z19	X20	Y20	Z20	X21	Y21	Z21	X22	Y22	Z22	X23	Y23	Z23	X24	Y24	Z24	X25	Y25	Z25	X26	Y26	Z26	X27	Y27	Z27	
180	3.0	0.3304463740408404	0.6536966231312838	0.8415990978818625	0.30393889011613806	0.6724247136449186	1.274037485889506	0.2996351617842562	0.8002272432151901	1.6616391665684704	0.3164370043411545	0.6795440631579895	1.7158515922252602	0.3676758342647455	0.7209846178442876	1.7208328301262958	0.2631194081183122	0.9110362266492307	1.750690690980931	0.16183301949153295	0.5720379582184302	0.8159272752632741	0.16119611759709676	0.6625201594831975	1.2580653098569226	0.09993069646500237	0.8505426014711633	1.6840827774940341	0.14387440015262523	0.6594896714213904	1.7003061637428651	0.08525373492117883	0.7217329540234824	1.7195690887688162	0.08129903960124489	0.9373800485018354	1.7486057400129846	0.39418712452860544	0.5984928391820696	0.32946553254900074	0.47787346778292406	0.5012471521387014	0.11752143211937667	0.4552445849821513	0.4860895887254128	0.25907455100255333	0.4839369087130151	0.7232425940358093	0.41840071760820596	0.42081079007659233	0.5893330542059334	0.649372253406221	0.4496059978449502	0.49897947764180994	0.4722328901419436	0.4535310413475724	0.5386705206468665	0.41656677860919217	0.45770561257348413	0.5068002895577425	0.4211901813433287	0.4547416594031669	0.5267702039097737	0.4461917532796866	0.2555137508862965	0.528850734457698	0.36605805840125727	0.21897252047511404	0.469811575256958	0.6232218729547815	0.36989789402710194	0.5011570485433353	0.4531901984370725	0.4225758063166218	0.5461413936308424	0.37436033206043506	0.4378715249728471	0.5233637077296478	0.3738721058398231	0.44418000784948003	0.4734155243124726	0.4116141839367751
181	3.0166666666666666	0.3305174579765019	0.6532232141508232	0.8415336903441156	0.3079152943628228	0.6747039889017754	1.2742380894749932	0.3000585921622067	0.7994360452140495	1.6658198630854806	0.3185102740884487	0.6932466051188783	1.7207715085994881	0.3676415662450735	0.7214153466391464	1.7210157952468788	0.2629449181792255	0.9111108309206977	1.750750298654103	0.16786950120034724	0.5589977210139438	0.8145550743993515	0.1605957526443894	0.6597672780787188	1.2532086175871207	0.09986751361580876	0.8505080494862527	1.6839843218077426	0.14380453101775675	0.6596837335612741	1.7002966383639408	0.08507446109633916	0.7218984069301212	1.7194427172015534	0.0806280683711669	0.9340037427414581	1.7425700961743134	0.3941465662871513	0.5983815853190118	0.3292160090221303	0.47717651500618197	0.5012063541024258	0.11380071776845545	0.45157100419483687	0.4842939848235975	0.2590810732371163	0.47961751647964196	0.722666103887501	0.4181878060735443	0.4183161663698783	0.5961326981100167	0.6450768666324528	0.4574458898445264	0.4390548474168537	0.47430291060873053	0.43953402220204485	0.5588570639507718	0.415037957850267	0.45089145081915827	0.5165751790465082	0.41897962041358205	0.42864654131789576	0.5185493587013494	0.47586307935893063	0.25521209742855905	0.5269225166058802	0.36262765887806764	0.2248050088582742	0.4569454899111984	0.6230747247318684	0.3697968338324791	0.5006925599602684	0.45315818102496214	0.4207846766375828	0.5314005780850405	0.37500393283345695	0.4411698956645226	0.5123781637755294	0.37426497902202377	0.43766998096536075	0.4712104756463759	0.40713983343834936
182	3.033333333333333	0.330710471020077	0.6531947325290346	0.8415105549596108	0.3080865762064586	0.6743228911910705	1.274226149305004	0.2994803494971617	0.8004565758272296	1.6615771454334838	0.3125065316189097	0.7091973965733508	1.7274022078242675	0.36400578008172707	0.7513652721760802	1.7324123083403167	0.26322334386304946	0.9065790822822473	1.7398344276653328	0.16795622639629726	0.5590046228338753	0.8146022213052743	0.1671971861129658	0.6454710978061559	1.2496547725024936	0.09929134678260076	0.8473853753232968	1.6783416077821047	0.14496760961645003	0.6739446667853866	1.7052746731394166	0.08502232830124555	0.7222976632620006	1.7195749632953867	0.08044055185427183	0.9345657535832828	1.742852526353684	0.3935718859285411	0.5962084950490029	0.32585577825140294	0.4699899526978639	0.48742250378714097	0.11208820733189363	0.45095483252744467	0.4825208798052001	0.2553848533569355	0.4744497929737289	0.7373203899937373	0.4170083867112749	0.4196493489294603	0.5952752973777492	0.6443579701720408	0.4543240771433341	0.46374646650856705	0.46810672107638446	0.4395595874684998	0.5594676810904181	0.4134093382816954	0.44407728906483246	0.5263500685352739	0.4167690594838354	0.40255142323262455	0.5103285134929251	0.5055344054381746	0.24948861234097244	0.5395894068175854	0.36200872997399186	0.22498101148087296	0.4569025247261586	0.6225532414401626	0.36950929371150576	0.5006530141911105	0.4495599147554004	0.4203305604038783	0.5317833529707285	0.3745463866592515	0.43708911820581237	0.5254054973376676	0.3730451431041277	0.4360578930313506	0.45663449181441274	0.4025541608081432
183	3.05	0.3363270706596076	0.6384241854465018	0.8396769662081134	0.3080300505932962	0.6745368687058783	1.274264338994629	0.2994689705894465	0.800667469085608	1.661599737438927	0.31202976019250545	0.7100730968848921	1.7232980794250392	0.36418962738931565	0.7511911326799003	1.7322239455193422	0.26211718365717984	0.9080164556816726	1.7452313670861215	0.1679990558749471	0.5587439676759135	0.814587570377856	0.16723758786412535	0.6451610665467857	1.2495717524209822	0.09927508649379368	0.8474381709663386	1.6784063153603708	0.14384014995197195	0.6597490241611442	1.7002883928841699	0.08502755835131544	0.7219764056206662	1.7194528665818067	0.07250435655099804	0.9529195700743042	1.7499875463167984	0.38583886674965295	0.5974968606278901	0.3260147660812088	0.46980616930046826	0.4870401894580888	0.11192223299614205	0.45099573498953993	0.48267580002121524	0.2554567295389272	0.4741796170416501	0.7371633741491419	0.40944512080033246	0.41399347464950664	0.5864026777778754	0.6489989455147389	0.4543681450092884	0.46368515351413603	0.46709881114349416	0.438526592569347	0.5655211029550262	0.4165036161321918	0.4149950976371408	0.5186491796591158	0.45500470452394964	0.3764563051473534	0.5021076682845007	0.5352057315174187	0.24929591616796448	0.5394898129581754	0.36199167357899714	0.22502371575011926	0.4566370220935188	0.6226624395727655	0.36941865642582994	0.5009300496951073	0.4494571561854203	0.4153497184472154	0.5451515729296124	0.3740593014743192	0.43330419077313037	0.536059743441974	0.3706495161178957	0.435986554851025	0.4598818540523181	0.4042788071875037
184	3.066666666666667	0.34280533008827924	0.6534910989272908	0.8407263516962712	0.3079978344657142	0.6748178909588531	1.2743953634698508	0.29947307466085454	0.800490115470243	1.6615684802010482	0.3121344826056087	0.7098052120423092	1.7230646668812581	0.3699031864258214	0.734954732850791	1.7255105681084264	0.26212851933206865	0.9078957509863307	1.745280683331899	0.1684037293910591	0.5585054693889158	0.8181063257302199	0.1671939667300596	0.645155425832911	1.2495214221054212	0.10093056883488798	0.8495907052427525	1.6794619916767826	0.14382823226091462	0.659882052871111	1.7003545789122085	0.08508332193185865	0.7220996472426586	1.719570578375687	0.07260776234725493	0.9526292668283771	1.7497133753732648	0.38164548059253306	0.5960258520714412	0.32643536943968743	0.46710378120123136	0.47549211370177474	0.1134057962687611	0.4507822505345422	0.48273027873998386	0.25551213069271295	0.470962610164431	0.7236433986784085	0.4144390074774317	0.43184982111207704	0.5502383708883811	0.6468594444210131	0.4235965412611247	0.466877812711639	0.5040139916739573	0.408180373088725	0.5474288630527733	0.45882074174894555	0.3859129062094492	0.5109482907829578	0.49324034956406393	0.3503611870620822	0.49388682307607645	0.5648770575966627	0.24329723047380367	0.552342968433913	0.36139583579330203	0.2250627741845815	0.45677972507076375	0.6228242641606454	0.3692931807736105	0.501689949754871	0.4457292529598812	0.4132262585982813	0.5092912559872327	0.3735643623979183	0.43123830192728213	0.5219372943427412	0.3714333869066329	0.4343673604456584	0.4420008574590534	0.39442747444303433
185	3.0833333333333335	0.34293791881582625	0.6534477606860626	0.8407113407452335	0.3120377250943238	0.6773822640761492	1.2748640873295964	0.2995039454567027	0.8005190497231197	1.661574403936621	0.3120147015048227	0.7100795380763069	1.7232127922439646	0.3676940092739066	0.7214530669704472	1.7208430118252622	0.2632733272870591	0.9069333636966217	1.7399677911774676	0.1681557903604177	0.558873883694478	0.8147999219351097	0.167160314682267	0.6452317535331037	1.2497427367712162	0.10042462874279735	0.8462041734101726	1.6737389240780762	0.1450382869349531	0.6738395192123803	1.705263258902312	0.08521716748646156	0.721904294177822	1.7194935543965897	0.07380446234042648	0.9515100056544995	1.7445476549189198	0.3788324377033178	0.5837241205970684	0.32735305783439034	0.4588535692546784	0.47245644739839554	0.1137441883432371	0.45052211172737416	0.4823099179546183	0.2553884440743321	0.4709778184704977	0.7241323126206582	0.41420456293273067	0.42770576695674895	0.5613427933802787	0.6441538715594364	0.39282493751296105	0.470070471909142	0.5409291722044206	0.3778341536081031	0.5293366231505203	0.5011378673656993	0.35683071478175754	0.5032474019067996	0.5314759946041782	0.32426606897681104	0.48566597786765214	0.5945483836759068	0.2337505388177429	0.5636880128497509	0.3611324486547199	0.22917872474646975	0.4605516214852397	0.6264050089425738	0.36918204514139175	0.5009633186642367	0.4457115611981548	0.4130128201462888	0.5112243489708708	0.37561305124838257	0.4253078503548663	0.5154593864687981	0.36779340503606833	0.4300949843730025	0.4518967641297416	0.39377779144703356
186	3.1	0.3430134096485642	0.6530859817377238	0.8406487124804723	0.31206738387739935	0.6769845829638357	1.2746989092676222	0.299428176531398	0.8007636335588613	1.6616617642591496	0.3100272021623112	0.6965717325838908	1.7183114890811422	0.3669231130372213	0.7190207289573557	1.7159820288960854	0.2620533915879422	0.9083939908555038	1.7456021678772924	0.16821458690427202	0.5586921632300472	0.8147164567105779	0.16729791284314066	0.645172953763129	1.249616938884445	0.10092518608683107	0.849792950065249	1.679613514240393	0.14485703324746602	0.6741680171980986	1.7054239258158774	0.08495697278482713	0.7226988398550369	1.719829010658703	0.07465764832608196	0.9726980780545708	1.761188186926333	0.36921710462296464	0.5950336840322977	0.3268852826308791	0.45850228785802466	0.4708053009833539	0.11033768431549572	0.4508160969687998	0.4820276022909169	0.25899090605603464	0.47080069338490427	0.7242916461752534	0.40969876972722175	0.42126428777273656	0.570926710872435	0.6472840953397863	0.36205333376479737	0.4732631311066449	0.5778443527348838	0.34748793412748114	0.5112443832482674	0.5434549929824531	0.3277485233540659	0.49554651303064157	0.5697116396442924	0.2981709508915399	0.47744513265922783	0.6242197097551507	0.23164197878787895	0.551532234981389	0.36190414181360747	0.23467665839704038	0.4466663331471005	0.6219105208308876	0.36878204119302394	0.5016765643826161	0.44573373545896255	0.3996747350500101	0.5089311767196217	0.3750847642415314	0.41988168095383227	0.5266116572187621	0.3623016632291017	0.4235579544446467	0.4474037386931988	0.38954341021931577
